<svg width="20" height="22" viewBox="0 0 20 22" fill="none" xmlns="http://www.w3.org/2000/svg">
<g clip-path="url(#clip0_15_57)">
<path d="M36.201 5.38469C36.201 6.15706 35.5787 6.77898 34.8063 6.77898C34.034 6.77898 33.412 6.15706 33.412 5.38469C33.412 4.61233 34.0127 3.99041 34.8063 3.99041C35.6006 4.01184 36.201 4.63397 36.201 5.38469ZM30.4516 8.19512V8.53844C30.4516 8.53844 29.7868 7.67992 28.3709 7.67992C26.0328 7.67992 24.209 9.4606 24.209 11.9275C24.209 14.3732 26.0114 16.1751 28.3709 16.1751C29.8083 16.1751 30.4516 15.2956 30.4516 15.2956V15.6601C30.4516 15.8318 30.5806 15.9601 30.7521 15.9601H32.4894V7.89381H30.7521C30.5806 7.89445 30.4516 8.04489 30.4516 8.19512ZM30.4516 13.3649C30.1301 13.837 29.4864 14.2446 28.7142 14.2446C27.3414 14.2446 26.29 13.3865 26.29 11.9275C26.29 10.4687 27.3414 9.61062 28.7142 9.61062C29.4651 9.61062 30.1516 10.0397 30.4516 10.4901V13.3649ZM33.7768 7.89445H35.8361V15.9608H33.7768V7.89445ZM64.5396 7.67971C63.1236 7.67971 62.4584 8.53823 62.4584 8.53823V4.01184L60.3991 4.01184V15.9608H62.137C62.3086 15.9608 62.437 15.8105 62.437 15.6603V15.2958C62.437 15.2958 63.1022 16.1753 64.5177 16.1753C66.8562 16.1753 68.6795 14.3738 68.6795 11.9281C68.6795 9.48246 66.8562 7.67971 64.5396 7.67971ZM64.1962 14.2229C63.4022 14.2229 62.7803 13.8158 62.4584 13.3434V10.4687C62.7803 10.0397 63.4667 9.58919 64.1962 9.58919C65.5691 9.58919 66.6203 10.4473 66.6203 11.9061C66.6203 13.3649 65.5693 14.2229 64.1962 14.2229ZM59.3267 11.177V15.9822H57.267V11.4127C57.267 10.083 56.838 9.54633 55.6803 9.54633C55.0584 9.54633 54.4146 9.86822 54.0063 10.3403V15.961H51.9475V7.89466H53.5773C53.749 7.89466 53.8778 8.04489 53.8778 8.19512V8.53844C54.4785 7.91609 55.272 7.67992 56.0656 7.67992C56.9668 7.67992 57.7177 7.93774 58.3184 8.4525C59.0475 9.05321 59.3267 9.82536 59.3267 11.177ZM46.9483 7.67971C45.5328 7.67971 44.8676 8.53823 44.8676 8.53823V4.01184H42.8084V15.9608H44.5457C44.7174 15.9608 44.8462 15.8105 44.8462 15.6603V15.2958C44.8462 15.2958 45.5114 16.1753 46.9269 16.1753C49.2654 16.1753 51.0888 14.3738 51.0888 11.9281C51.1102 9.48225 49.2869 7.67971 46.9483 7.67971ZM46.605 14.2229C45.8114 14.2229 45.1895 13.8158 44.8676 13.3434V10.4687C45.1895 10.0397 45.876 9.58919 46.605 9.58919C47.9783 9.58919 49.0293 10.4473 49.0293 11.9061C49.0293 13.3649 47.9783 14.2229 46.605 14.2229ZM41.0277 7.67971C41.6496 7.67971 41.9715 7.78729 41.9715 7.78729V9.69634C41.9715 9.69634 40.2553 9.11707 39.1829 10.3401V15.982H37.1232V7.89445H38.861C39.0327 7.89445 39.1611 8.04468 39.1611 8.19491V8.53823C39.5477 8.08754 40.3843 7.67971 41.0277 7.67971ZM19.64 15.2313C19.5328 14.9739 19.4255 14.6951 19.3183 14.4589C19.1465 14.0729 18.9748 13.708 18.825 13.3649L18.8036 13.3434C17.3231 10.1254 15.736 6.86491 14.0624 3.6473L13.9981 3.51829C13.8221 3.1845 13.6506 2.84836 13.4836 2.50997C13.2689 2.12358 13.0546 1.71639 12.7112 1.32999C12.0248 0.471906 11.0379 -0.000213623 9.98695 -0.000213623C8.91413 -0.000213623 7.94889 0.471908 7.24125 1.28692C6.91936 1.67289 6.68319 2.0805 6.46888 2.4669C6.30146 2.80508 6.12993 3.1412 5.95433 3.47521L5.88983 3.60422C4.23795 6.82184 2.62914 10.0825 1.14892 13.3004L1.12727 13.343C0.977259 13.6868 0.805383 14.0513 0.633722 14.437C0.526569 14.6732 0.419415 14.9306 0.312261 15.2094C0.033233 16.003 -0.0527084 16.7539 0.0548739 17.5265C0.290826 19.1355 1.36322 20.4865 2.84366 21.0876C3.4015 21.3238 3.98077 21.431 4.58126 21.431C4.75292 21.431 4.96724 21.4095 5.13911 21.3879C5.84718 21.3022 6.57647 21.0664 7.28454 20.6588C8.16406 20.1653 9.00071 19.4576 9.94452 18.4279C10.8883 19.4576 11.7464 20.1653 12.6045 20.6588C13.3128 21.0664 14.0419 21.3022 14.7497 21.3879C14.9214 21.4097 15.1361 21.431 15.3078 21.431C15.9085 21.431 16.509 21.3238 17.0452 21.0876C18.547 20.4865 19.598 19.1141 19.8342 17.5265C20.0045 16.7758 19.9188 16.0253 19.64 15.2313ZM9.96531 16.3467C8.80676 14.8879 8.05583 13.5151 7.79866 12.357C7.69151 11.8634 7.66986 11.4344 7.73437 11.0482C7.77702 10.7049 7.90603 10.4044 8.07769 10.147C8.4853 9.56818 9.17173 9.20322 9.96553 9.20322C10.7595 9.20322 11.4674 9.54654 11.8536 10.147C12.0252 10.4044 12.1538 10.7051 12.1971 11.0482C12.2612 11.4346 12.2398 11.8849 12.1326 12.357C11.8744 13.4937 11.1234 14.8667 9.96531 16.3467ZM18.5243 17.3551C18.3743 18.4705 17.6234 19.4362 16.5724 19.8652C16.0576 20.0795 15.4996 20.144 14.9422 20.0795C14.406 20.015 13.8693 19.8434 13.3119 19.5219C12.5396 19.0924 11.7674 18.4279 10.8663 17.4408C12.282 15.7034 13.1401 14.1156 13.462 12.7001C13.6122 12.0349 13.6338 11.4344 13.5691 10.8763C13.4836 10.3401 13.2903 9.84657 12.99 9.41753C12.3246 8.45186 11.2089 7.89445 9.9651 7.89445C8.72126 7.89445 7.60557 8.47372 6.94057 9.41753C6.64033 9.84657 6.44702 10.3401 6.3613 10.8763C6.27558 11.4344 6.29679 12.0563 6.46845 12.7001C6.79013 14.1156 7.66965 15.7246 9.06394 17.4622C8.18442 18.4491 7.39062 19.1143 6.61825 19.5433C6.06041 19.8652 5.52443 20.0369 4.98823 20.101C4.40918 20.1655 3.85112 20.0795 3.35778 19.8867C2.30682 19.4576 1.55589 18.4919 1.40587 17.3765C1.34158 16.8403 1.38423 16.3041 1.59896 15.7034C1.66304 15.4886 1.77062 15.2743 1.87778 15.017C2.028 14.6736 2.19924 14.3087 2.37111 13.9441L2.39276 13.9015C3.87277 10.7049 5.46014 7.44418 7.11202 4.26943L7.17631 4.14042C7.34819 3.81896 7.51985 3.47564 7.6913 3.15375C7.86296 2.81043 8.05583 2.48854 8.292 2.20951C8.74247 1.69517 9.34296 1.41593 10.0082 1.41593C10.6734 1.41593 11.2739 1.69517 11.7243 2.20951C11.9605 2.48918 12.1534 2.81107 12.325 3.15375C12.4969 3.47564 12.6686 3.81896 12.8398 4.14042L12.9043 4.26943C14.531 7.45738 16.0973 10.6758 17.6024 13.9229V13.9443C17.7742 14.2881 17.9243 14.6738 18.0959 15.0176C18.2031 15.2746 18.3104 15.4889 18.3747 15.7036C18.546 16.2608 18.6103 16.7974 18.5243 17.3551Z" fill="#767676"/>
</g>
<defs>
<clipPath id="clip0_15_57">
<rect width="20" height="21.3793" fill="white"/>
</clipPath>
</defs>
</svg>
