<svg width="143" height="192" viewBox="0 0 143 192" fill="none" xmlns="http://www.w3.org/2000/svg">
<g clip-path="url(#clip0_12_6687)">
<path d="M269.915 7.48324C271.398 13.0213 268.131 18.6763 262.593 20.1602C257.055 21.6441 251.401 18.3796 249.917 12.8416C248.433 7.30359 251.545 1.69016 257.235 0.165492C262.971 -1.20675 268.472 2.10042 269.915 7.48324ZM234.089 38.6808L234.749 41.1425C234.749 41.1425 228.333 36.2639 218.18 38.9843C201.416 43.4763 191.76 59.7481 196.5 77.4363C201.198 94.9723 217.583 104.43 234.502 99.8963C244.808 97.1348 247.731 89.5925 247.731 89.5925L248.431 92.2063C248.761 93.4371 249.933 94.1097 251.162 93.7803L263.62 90.4423L248.122 32.6051L235.665 35.943C234.437 36.277 233.801 37.6036 234.089 38.6808ZM244.022 75.7489C242.624 79.7517 238.791 83.9113 233.254 85.3948C223.411 88.0324 214.223 83.8997 211.42 73.4383C208.618 62.9784 214.508 54.8058 224.351 52.1682C229.736 50.7254 235.482 52.483 238.499 55.1366L244.022 75.7489ZM257.354 30.1363L272.12 26.1799L287.617 84.0172L272.852 87.9736L257.354 30.1363ZM477.517 -30.5065C467.365 -27.7861 464.245 -20.3523 464.245 -20.3523L455.548 -52.8076L440.783 -48.8511L463.74 36.8253L476.2 33.4865C477.431 33.1567 478.063 31.8329 477.774 30.7557L477.074 28.1419C477.074 28.1419 483.533 33.1702 493.683 30.4507C510.45 25.9578 520.063 9.53775 515.364 -7.9983C510.666 -25.5343 494.128 -34.9574 477.517 -30.5065ZM487.627 17.0695C481.934 18.595 476.692 16.8703 473.477 14.102L467.953 -6.51038C469.437 -10.2051 473.494 -14.754 478.724 -16.1555C488.568 -18.7931 497.754 -14.66 500.556 -4.20016C503.359 6.25969 497.472 14.4315 487.627 17.0695ZM446.859 4.58497L456.092 39.0393L441.323 42.9966L432.544 10.2325C429.989 0.697655 425.882 -2.32575 417.581 -0.101538C413.121 1.09333 409.124 4.63821 407.104 8.80777L417.902 49.109L403.14 53.0646L387.642 -4.77267L399.329 -7.90396C400.559 -8.23376 401.771 -7.40402 402.06 -6.32684L402.72 -3.86517C405.831 -9.48166 411.068 -12.6997 416.758 -14.2244C423.219 -15.9557 429.099 -15.5499 434.395 -13.013C440.777 -10.1066 444.263 -5.10657 446.859 4.58497ZM351.384 3.29073C341.235 6.01027 338.115 13.444 338.115 13.444L329.418 -19.0112L314.653 -15.0548L337.61 70.6216L350.067 67.2837C351.298 66.9539 351.933 65.6293 351.644 64.5521L350.944 61.9383C350.944 61.9383 357.403 66.9666 367.553 64.2471C384.321 59.7542 393.933 43.3341 389.235 25.7981C384.689 8.21932 368.152 -1.20217 351.384 3.29073ZM361.494 50.8667C355.804 52.3914 350.562 50.6667 347.347 47.8984L341.824 27.286C343.307 23.5912 347.364 19.0424 352.591 17.6417C362.438 15.0033 371.622 19.1368 374.425 29.5966C377.228 40.0565 371.341 48.2283 361.494 50.8667ZM308.932 14.6659C313.391 13.471 315.906 13.6239 315.906 13.6239L319.574 27.3122C319.574 27.3122 306.155 26.4559 300.816 37.2858L311.655 77.7392L296.887 81.6964L281.349 23.707L293.809 20.3682C295.04 20.0384 296.249 20.869 296.538 21.9462L297.197 24.4078C299.103 20.4335 304.319 15.9019 308.932 14.6659ZM170.086 109.903C168.823 108.264 167.518 106.471 166.296 104.983C164.322 102.546 162.39 100.259 160.656 98.0866L160.462 97.9741C143.664 77.7444 126.019 57.4154 107.838 37.5597L107.129 36.7581C105.226 34.7029 103.35 32.6224 101.502 30.5169C99.2203 28.1589 96.9013 25.651 93.6973 23.5401C87.1268 18.7062 79.1436 17.2171 71.6079 19.2362C63.9156 21.2974 57.9017 26.5371 54.3936 33.7405C52.8271 37.1264 51.9168 40.5028 51.1226 43.6851C50.5718 46.4316 49.9877 49.1712 49.3703 51.9035L49.1557 52.9525C43.4932 79.1971 38.2223 105.668 33.791 131.584L33.7178 131.932C33.3026 134.685 32.7706 137.629 32.2808 140.724C31.9663 142.624 31.6924 144.675 31.4598 146.88C30.9838 153.106 31.8103 158.656 34.066 163.989C38.8492 175.072 49.1341 182.699 60.9041 184.165C65.3577 184.787 69.717 184.442 74.0227 183.288C75.2535 182.958 76.749 182.393 77.9398 181.908C82.8522 179.933 87.6284 176.841 91.9223 172.558C97.2804 167.329 101.92 160.648 106.709 151.451C115.454 157.021 122.967 160.447 130.068 162.337C135.929 163.899 141.61 164.188 146.85 163.443C148.123 163.27 149.703 163.01 150.934 162.68C155.241 161.526 159.341 159.604 162.732 156.88C172.346 149.684 177.245 137.825 175.888 125.988C175.667 120.277 173.611 115.061 170.086 109.903ZM102.859 136.489C91.7497 128.255 83.7277 119.854 79.6587 112.044C77.9421 108.711 76.9627 105.676 76.6832 102.784C76.3294 100.24 76.6772 97.8377 77.4135 95.6624C79.2241 90.7288 83.4448 86.7931 89.1365 85.2681C94.8297 83.7426 100.565 84.8443 104.487 88.4079C106.213 89.9236 107.712 91.8325 108.682 94.2095C109.884 96.8569 110.595 100.127 110.734 103.718C111.066 112.364 108.32 123.652 102.859 136.489ZM166.167 127.275C167.234 135.561 163.705 143.928 156.994 149.023C153.714 151.549 149.837 153.084 145.716 153.692C141.748 154.26 137.57 154.06 132.956 152.826C126.593 151.231 119.779 147.949 111.421 142.603C118.234 127.425 121.336 114.392 120.925 103.624C120.724 98.5654 119.726 94.2182 118.189 90.3411C116.546 86.6608 114.212 83.4933 111.235 80.9938C104.608 75.3482 95.5375 73.4949 86.6189 75.8847C77.7003 78.2744 70.8135 84.5714 67.8586 92.6164C66.5301 96.2696 66.0923 100.18 66.5078 104.189C66.9653 108.355 68.3123 112.774 70.78 117.06C75.806 126.592 85.2038 136.439 98.5395 146.219C94.1292 154.985 89.7155 161.28 85.0018 165.84C81.6204 169.22 78.1071 171.48 74.3855 172.97C70.3575 174.545 66.191 175.001 62.2831 174.566C53.9231 173.509 46.6835 168.027 43.4647 160.317C41.9736 156.596 41.2492 152.67 41.6348 147.95C41.6817 146.287 42.0413 144.544 42.3152 142.492C42.7327 139.742 43.2593 136.796 43.7913 133.852L43.8646 133.505C48.3351 107.741 53.4523 81.3114 59.1971 55.374L59.4102 54.3255C60.025 51.6903 60.5963 48.8988 61.2072 46.2614C61.7784 43.4699 62.5429 40.7913 63.7002 38.3369C65.942 33.7835 69.7111 30.6276 74.4808 29.3495C79.2506 28.0715 84.0927 28.92 88.3109 31.7425C90.5416 33.294 92.543 35.2315 94.4322 37.3588C96.283 39.3366 98.1734 41.4685 100.019 43.4444L100.729 44.2455C118.518 63.9785 135.932 84.0459 152.962 104.437L153.003 104.591C154.896 106.725 156.713 109.203 158.604 111.338C159.866 112.974 161.048 114.305 161.921 115.721C164.22 119.387 165.711 123.111 166.167 127.275Z" fill="white" fill-opacity="0.1"/>
</g>
<defs>
<clipPath id="clip0_12_6687">
<rect width="148.463" height="158.702" fill="white" transform="translate(0 38.4251) rotate(-15)"/>
</clipPath>
</defs>
</svg>
