<svg width="20" height="20" viewBox="0 0 20 20" fill="none" xmlns="http://www.w3.org/2000/svg">
<path d="M10.0483 1.66672C13.5095 1.6923 16.596 3.84834 17.8063 7.08655C19.0166 10.3251 18.0989 13.9734 15.4997 16.2566C12.901 18.5394 9.16074 18.9836 6.0982 17.3733L6.06002 17.3599C6.05407 17.3565 6.05311 17.3535 6.05183 17.3495L5.48305 17.0277C5.36721 16.9803 5.23884 16.9726 5.16046 16.9924C4.56921 17.205 3.96494 17.3795 3.35136 17.515L3.23888 17.5286C2.56342 17.5435 2.22309 17.1053 2.22309 16.4674L2.23937 16.3308C2.39276 15.6964 2.58499 15.072 2.80378 14.4939C2.83771 14.3844 2.82642 14.266 2.76785 14.1562L2.61467 13.8576C1.26069 11.2689 1.3628 8.16131 2.88379 5.66674C4.40458 3.1725 7.12192 1.6551 10.0483 1.66672ZM10.0403 2.82885L9.8062 2.83251C7.37908 2.90196 5.14444 4.19266 3.87659 6.27206C2.56802 8.41825 2.48018 11.0916 3.64715 13.3228L3.79792 13.6168C3.99844 13.9921 4.0404 14.4319 3.9032 14.8709C3.68999 15.4372 3.51179 16.016 3.36959 16.6041L3.44829 16.2975L3.77723 16.2118C3.89015 16.1806 4.00334 16.1479 4.11712 16.1134L4.46056 16.0046L4.8094 15.8848C5.17791 15.7833 5.56971 15.8067 5.95567 15.9658C6.03669 16.0049 6.13722 16.0591 6.26394 16.1308L6.61587 16.3327C6.62183 16.3343 6.62705 16.3357 6.63104 16.3368L6.62076 16.3355L6.86054 16.4556C9.3818 17.673 12.3855 17.315 14.5488 15.5388L14.7323 15.383C16.9688 13.4184 17.7583 10.2797 16.717 7.49361C15.6757 4.70717 13.0192 2.8515 10.0403 2.82885ZM6.34659 9.04963C6.87168 9.04963 7.29773 9.47499 7.29773 10.0002C7.29773 10.5253 6.87168 10.9507 6.34659 10.9507C5.82151 10.9507 5.39546 10.5253 5.39546 10.0002C5.39546 9.47499 5.82151 9.04963 6.34659 9.04963ZM10.044 9.04963C10.5691 9.04963 10.9951 9.47499 10.9951 10.0002C10.9951 10.5253 10.5691 10.9507 10.044 10.9507C9.51891 10.9507 9.09286 10.5253 9.09286 10.0002C9.09286 9.47499 9.51891 9.04963 10.044 9.04963ZM13.7414 9.04963C14.2665 9.04963 14.6925 9.47499 14.6925 10.0002C14.6925 10.5253 14.2665 10.9507 13.7414 10.9507C13.2163 10.9507 12.7903 10.5253 12.7903 10.0002C12.7903 9.47499 13.2163 9.04963 13.7414 9.04963Z" fill="#767676"/>
</svg>
