<svg width="20" height="20" viewBox="0 0 20 20" fill="none" xmlns="http://www.w3.org/2000/svg">
<path d="M5.40255 2.34609C6.86696 1.87504 8.45157 2.04454 9.77745 2.79687L9.99695 2.92859L10.2204 2.79613C11.4774 2.08443 12.9686 1.89425 14.3719 2.2802L14.5933 2.34613C17.6539 3.33151 19.0242 6.67335 17.9947 9.87097C17.4785 11.3584 16.6319 12.7071 15.5145 13.8187C13.9939 15.2954 12.3176 16.5995 10.5181 17.7061L10.3271 17.8248C10.1331 17.9454 9.88797 17.9474 9.69199 17.8301L9.48736 17.7076C7.68541 16.5995 6.00914 15.2954 4.48332 13.8135C3.37108 12.7071 2.52452 11.3584 2.00398 9.85794C0.97818 6.67142 2.34289 3.33116 5.40255 2.34609ZM9.47883 4.04524C8.3921 3.30242 7.02772 3.10283 5.77624 3.50539C3.40618 4.26844 2.33169 6.89835 3.16002 9.47197C3.6156 10.7848 4.3625 11.9747 5.33814 12.9453C6.79475 14.3599 8.40037 15.609 10.12 16.6665L10.001 16.5915L10.3909 16.3463C11.7521 15.4675 13.0341 14.4701 14.2196 13.3684L14.6597 12.9504C15.6405 11.9747 16.3874 10.7848 16.8386 9.485C17.6705 6.90081 16.5914 4.26904 14.22 3.50558C12.906 3.08403 11.4716 3.32548 10.3633 4.15522C10.1505 4.31453 9.85889 4.31761 9.64277 4.16283L9.47883 4.04524Z" fill="#767676"/>
</svg>
