<svg width="20" height="20" viewBox="0 0 20 20" fill="none" xmlns="http://www.w3.org/2000/svg">
<path d="M8.19177 12.3507C9.39491 12.2446 10.605 12.2446 11.8081 12.3507L12.1923 12.3832C12.7177 12.435 13.2394 12.5161 13.7529 12.6257C15.0615 12.8953 16.0117 13.3735 16.4324 14.2606C16.7448 14.9206 16.7448 15.6867 16.4322 16.347C16.0105 17.2363 15.048 17.7185 13.7626 17.9721L13.3732 18.053C12.8526 18.1529 12.3277 18.2211 11.8063 18.2567C10.8279 18.34 9.84493 18.3552 8.89673 18.3031C8.79221 18.3031 8.72205 18.3027 8.66024 18.3013L8.54002 18.2968C8.39387 18.2893 8.25996 18.274 8.20378 18.2575C7.54409 18.2127 6.88879 18.1172 6.26016 17.9754L6.04693 17.9309C4.85656 17.6664 3.97501 17.1892 3.56724 16.3461C3.41281 16.0189 3.33293 15.6613 3.33339 15.3023C3.33205 14.9406 3.41258 14.5835 3.57276 14.2499C3.99743 13.3969 4.9952 12.8836 6.24239 12.6267C6.88856 12.4882 7.54367 12.3957 8.19177 12.3507ZM11.703 13.5525C10.5698 13.4525 9.43008 13.4525 8.28584 13.5534C7.68307 13.5953 7.084 13.6799 6.48844 13.8075C5.56605 13.9975 4.86083 14.3603 4.65104 14.7815C4.57379 14.9425 4.534 15.119 4.53465 15.3008C4.53443 15.4836 4.57476 15.6641 4.65026 15.8241C4.86602 16.2702 5.53148 16.6036 6.50652 16.7948L6.80028 16.8569C7.29228 16.9545 7.79899 17.0217 8.36212 17.0642C8.43323 17.0785 8.50997 17.0873 8.60103 17.0919L8.92903 17.0976C9.85418 17.1476 10.7817 17.1333 11.7147 17.0539C12.316 17.0127 12.9134 16.926 13.5163 16.7915L13.7038 16.7518C14.5601 16.5576 15.1525 16.2399 15.3475 15.8286C15.5048 15.4965 15.5048 15.1108 15.3476 14.779C15.139 14.3389 14.4793 14.0069 13.5073 13.8066C12.916 13.6804 12.3166 13.5958 11.7136 13.5533L11.703 13.5525ZM10.0036 1.66666C12.4486 1.66666 14.4307 3.65719 14.4307 6.11263C14.4307 8.56808 12.4486 10.5586 10.0036 10.5586C7.5586 10.5586 5.57652 8.56808 5.57652 6.11263C5.57652 3.65719 7.5586 1.66666 10.0036 1.66666ZM10.0036 2.87305C8.22204 2.87305 6.77779 4.32346 6.77779 6.11263C6.77779 7.90181 8.22204 9.35222 10.0036 9.35222C11.7852 9.35222 13.2295 7.90181 13.2295 6.11263C13.2295 4.32346 11.7852 2.87305 10.0036 2.87305Z" fill="#767676"/>
</svg>
