<svg width="20" height="20" viewBox="0 0 20 20" fill="none" xmlns="http://www.w3.org/2000/svg">
<path d="M16.276 8.18856C16.7216 8.18856 17.0833 8.54489 17.0833 8.98573C17.0833 12.5722 14.3338 15.5337 10.8076 15.9315V17.5362C10.8076 17.9762 10.446 18.3333 10.0004 18.3333C9.55395 18.3333 9.1931 17.9762 9.1931 17.5362V15.9315C5.66617 15.5337 2.91663 12.5722 2.91663 8.98573C2.91663 8.54489 3.27828 8.18856 3.72389 8.18856C4.1695 8.18856 4.53115 8.54489 4.53115 8.98573C4.53115 11.9632 6.98443 14.3858 10.0004 14.3858C13.0155 14.3858 15.4688 11.9632 15.4688 8.98573C15.4688 8.54489 15.8304 8.18856 16.276 8.18856ZM10.1456 1.66667C12.1484 1.66667 13.7726 3.26978 13.7726 5.24756V9.10028C13.7726 11.0773 12.1484 12.6812 10.1456 12.6812H9.85417C7.85135 12.6812 6.22794 11.0773 6.22794 9.10028V5.24756C6.22794 3.26978 7.85135 1.66667 9.85417 1.66667H10.1456Z" fill="#AEAEB2"/>
</svg>
